<svg xmlns="http://www.w3.org/2000/svg" xmlns:xlink="http://www.w3.org/1999/xlink" width="341" height="125"><defs><path id="a" d="M0 0h340.909v124.938H0z"/></defs><g fill="none" fill-rule="evenodd"><mask id="b" fill="#fff"><use xlink:href="#a"/></mask><path fill="#000" d="M323.533 69.007h2.022l8.398 12.155V69.007h1.87v15.22h-2l-8.333-12.045-.066 12.046h-1.891v-15.22zm-13.246 0h11.156v1.762h-9.134v4.761h8.395v1.74h-8.395v5.218h9.482v1.74h-11.504v-15.22zm-7.9 6.893c2.849 0 3.523-1.196 3.523-2.761 0-1.631-.957-2.457-3.262-2.457h-4.676V75.9h4.415zm-6.415-6.893h6.807c3.152 0 5.218 1.457 5.218 4.132 0 2.457-1.348 3.63-3.392 3.935 1.196.261 2.153 1.392 2.63 3.24.849 3.196 1.566 2.979 1.806 3.914h-2.392c-.696-1.022-1.13-1.935-1.5-3.718-.326-1.653-1.066-2.849-3.37-2.849h-3.807v6.567h-2v-15.22zm-13.439 0h11.156v1.762h-9.134v4.761h8.395v1.74h-8.395v5.218h9.482v1.74h-11.504v-15.22zm-8.895 13.438c3.304 0 4.979-2.892 4.979-5.936 0-3.392-1.827-5.697-5.262-5.697h-3.461v11.633h3.744zm-5.766-13.438h5.527c4.609 0 7.327 2.349 7.327 7.524 0 3.718-1.783 7.697-7.088 7.697h-5.766v-15.22zm-14.511 0h2.022l8.397 12.155V69.007h1.87v15.22h-2l-8.333-12.045-.065 12.046h-1.891v-15.22zm-5.81 8.959L244.9 70.55l-2.522 7.415h5.174zm-3.674-8.959h2.174l6.219 15.22h-2.262l-1.826-4.609h-6.37l-1.675 4.61h-2.13l5.87-15.22zm-11.524 8.959l-2.652-7.415-2.523 7.415h5.175zm-3.674-8.959h2.174l6.218 15.22h-2.26l-1.827-4.609h-6.371l-1.674 4.61h-2.131l5.87-15.22zm-17.381.011h2.022v13.525h8.185v1.696h-10.207v-15.22zm-14.921-.01h2.196l4.61 13.306h.023l4.74-13.307h2.088l-5.763 15.22h-2.087l-5.807-15.22zm137.598-18.896h-4.89v-1.761h11.824v1.761h-4.912v13.459h-2.022V50.112zm-17.034-1.761h10.693v1.761h-8.67v4.762h7.93v1.74h-7.93v5.218h9.018v1.739h-11.04V48.35zm-10.757 0h2.022v13.524h7.258v1.696h-9.28V48.35zm-10.893 0h2.023v13.524h7.258v1.696h-9.28V48.35zm-5.895 8.958l-2.652-7.415-2.522 7.415h5.174zm-3.674-8.958h2.174l6.219 15.22h-2.262l-1.826-4.61h-6.37l-1.675 4.61h-2.13l5.87-15.22zm-11.853 13.437c2.587 0 3.631-1 3.631-2.631 0-1.478-.956-2.63-3.674-2.63H270v5.261h3.868zm-.043-7.045c1.913 0 3.022-.696 3.022-2.261 0-1.479-.826-2.327-3.283-2.327H270v4.588h3.825zm-5.847-6.392h5.803c3.327 0 5.045 1.609 5.045 3.892 0 1.304-.5 2.587-2.327 3.283 2.152.609 3.066 2 3.066 3.631 0 2.631-1.696 4.414-5.262 4.414h-6.325V48.35zm-9.676 8.958l-2.652-7.415-2.456 7.415h5.108zm-3.675-8.958h2.175l6.152 15.22h-2.261l-1.76-4.61h-6.305l-1.674 4.61h-2.131l5.804-15.22zm-13.07 6.892c2.847 0 3.521-1.196 3.521-2.761 0-1.63-.956-2.457-3.26-2.457h-4.147v5.218h3.885zm-5.886-6.892h6.276c3.153 0 5.219 1.457 5.219 4.131 0 2.457-1.348 3.631-3.392 3.935 1.196.261 2.153 1.392 2.63 3.24.849 3.196 1.566 2.98 1.806 3.914h-2.392c-.696-1.022-1.13-1.935-1.5-3.718-.327-1.652-1.066-2.849-3.37-2.849h-3.277v6.567h-2V48.35zm-12.584 0h10.627v1.761h-8.605v4.762h7.866v1.74h-7.866v5.218h8.953v1.739h-10.975V48.35zm-7.02 7.306c2.609 0 3.478-1.088 3.478-2.936 0-1.5-.782-2.63-3.283-2.63h-3.999v5.566h3.803zm-5.826-7.306h6.565c2.435 0 4.805 1.348 4.805 4.392 0 3.74-2.522 4.631-5.588 4.631h-3.76v6.197h-2.022V48.35zm-3.612 7.632c0-3.697-1.914-6.24-5.197-6.24-3.218 0-5.219 2.282-5.219 6.24 0 4.196 2.436 6.131 5.175 6.131 3.392 0 5.24-2.413 5.24-6.131zm-12.503-.044c0-4.175 2.5-7.85 7.284-7.85 5.023 0 7.284 4.197 7.284 7.785 0 4.196-2.544 7.958-7.284 7.958-4.5 0-7.284-3.48-7.284-7.893zM80.105 39.67v31.429c2.056-4.771 3.094-10.08 3.094-15.88 0-5.676-1.038-10.874-3.094-15.55zm-38.571-4.846c-5.872 0-10.33 4.568-12.77 9.686v-6.375c-3.48 3.238-6.832 8.882-6.832 17.083 0 8.423 3.304 14.51 6.831 17.7v-6.425c2.457 5.35 6.703 9.625 12.706 9.625l.13-.001c5.882-.064 10.32-4.796 12.835-10.3v6.697c3.435-3.365 6.768-9.01 6.768-17.296 0-8.25-3.355-13.694-6.768-16.903v6.374c-2.455-5.244-7.14-9.806-12.9-9.865zm0 55.164c-4.67 0-8.984-1.247-12.77-3.716v2.31c-5.538-2.036-9.797-6.146-12.836-10.707v5.706C9.818 78.12 4.32 68.743 4.32 55.217c0-12.98 5.525-22.216 11.608-27.725v5.725c3.04-4.511 7.246-8.715 12.835-10.821v2.361c3.804-2.527 8.117-3.804 12.771-3.804 4.692.024 9.049 1.324 12.9 3.875v-2.366c5.378 2.052 9.69 6.117 12.836 10.717v-5.636c5.808 5.201 11.607 14.179 11.607 27.674 0 13.579-5.762 22.964-11.607 28.251V77.72c-2.882 4.296-7.104 8.666-12.836 10.804v-2.335c-3.799 2.5-8.156 3.776-12.9 3.798zM0 55.217c0-5.596 1.038-10.762 3.092-15.451v31.437C1.037 66.4 0 61.055 0 55.217zM161.872 97.66c0 7.008-1.591 12.958-4.772 17.778V80.19c3.181 4.8 4.772 10.646 4.772 17.47zm-25.482 10.243c-1.47 1.886-3.125 3.115-4.96 3.725v-2.436c-1.823 1.945-3.909 2.892-6.26 2.892-2.49 0-4.697-1.006-6.576-3.076v2.526c-1.772-.639-3.369-1.839-4.767-3.631-2.201-2.822-3.26-6.271-3.26-10.139 0-3.867 1.059-7.211 3.26-10.034 1.408-1.804 2.983-3.05 4.767-3.716v2.601c1.863-2.089 4.022-3.17 6.576-3.17 2.428 0 4.5.976 6.26 2.868v-2.425c1.925.628 3.597 1.919 5.042 3.842 2.201 2.823 3.26 6.167 3.26 10.139 0 3.867-1.14 7.212-3.342 10.034zm7.875-35.157v3.84c-3.317-3.923-7.691-6.241-12.836-6.094v.36a13.884 13.884 0 0 0-3.207-.367c-3.54 0-6.74 1.523-9.628 4.611v-2.921c-2.448 1.358-4.712 3.54-6.805 6.567V41.007h-15.98v82.364h15.98v-6.69c1.967 3.183 4.23 5.432 6.805 6.771v-2.87c2.668 2.916 5.791 4.356 9.4 4.356a15.07 15.07 0 0 0 3.435-.386v.384c5.146.046 9.42-1.998 12.836-5.931v3.715c6.843-3.923 11.771-12.987 11.771-25.061 0-11.966-4.943-20.85-11.771-24.914zM204.148 0H187.31l-4.575 10.372V5.175L169.9 34.28v-5.197l-6.058 13.735-.01.023-2.48 6.074-4.288-29.154v15.636L151.875 0h-16.112l8.466 44.943V32.774l5.786 30.72h16.683l3.202-6.648v4.76l12.835-26.656v4.76l12.836-26.656v4.76L204.148 0z" mask="url(#b)"/></g></svg>