<?xml version="1.0" encoding="utf-8"?>
<!-- Generator: Adobe Illustrator 23.0.3, SVG Export Plug-In . SVG Version: 6.00 Build 0)  -->
<svg version="1.1" id="Layer_1" xmlns="http://www.w3.org/2000/svg" xmlns:xlink="http://www.w3.org/1999/xlink" x="0px" y="0px"
	 viewBox="0 0 142.3 87.7" style="enable-background:new 0 0 142.3 87.7;" xml:space="preserve">
<style type="text/css">
	.st0{filter:url(#Adobe_OpacityMaskFilter);}
	.st1{fill-rule:evenodd;clip-rule:evenodd;fill:#FFFFFF;}
	.st2{mask:url(#b_2_);fill-rule:evenodd;clip-rule:evenodd;fill:#FFFFFF;}
</style>
<g>
	<defs>
		<filter id="Adobe_OpacityMaskFilter" filterUnits="userSpaceOnUse" x="1.6" y="1.3" width="139.9" height="85.6">
			<feColorMatrix  type="matrix" values="1 0 0 0 0  0 1 0 0 0  0 0 1 0 0  0 0 0 1 0"/>
		</filter>
	</defs>
	<mask maskUnits="userSpaceOnUse" x="1.6" y="1.3" width="139.9" height="85.6" id="b_2_">
		<g class="st0">
			<path id="a_2_" class="st1" d="M1.6,1.3h233.7V87H1.6V1.3z"/>
		</g>
	</mask>
	<path class="st2" d="M56.5,28.5v21.5c1.4-3.3,2.1-6.9,2.1-10.9C58.7,35.3,58,31.7,56.5,28.5L56.5,28.5z M30.1,25.2
		c-4,0-7.1,3.1-8.8,6.6v-4.4c-2.4,2.2-4.7,6.1-4.7,11.7c0,5.8,2.3,9.9,4.7,12.1v-4.4c1.7,3.7,4.6,6.6,8.7,6.6l0.1,0
		c4,0,7.1-3.3,8.8-7.1V51c2.4-2.3,4.6-6.2,4.6-11.9c0-5.7-2.3-9.4-4.6-11.6V32C37.3,28.4,34.1,25.3,30.1,25.2z M30.1,63
		c-3.2,0-6.2-0.9-8.8-2.5v1.6c-3.8-1.4-6.7-4.2-8.8-7.3v3.9c-4.2-3.7-8-10.2-8-19.4c0-8.9,3.8-15.2,8-19v3.9c2.1-3.1,5-6,8.8-7.4
		v1.6c2.6-1.7,5.6-2.6,8.8-2.6c3.2,0,6.2,0.9,8.8,2.7v-1.6c3.7,1.4,6.6,4.2,8.8,7.3v-3.9c4,3.6,8,9.7,8,19c0,9.3-3.9,15.7-8,19.4
		v-3.9c-2,2.9-4.9,5.9-8.8,7.4v-1.6C36.3,62.1,33.4,63,30.1,63L30.1,63z M1.6,39.2c0-3.8,0.7-7.4,2.1-10.6v21.5
		C2.4,46.9,1.6,43.2,1.6,39.2z M112.6,68.3c0,4.8-1.1,8.9-3.3,12.2V56.3C111.5,59.6,112.6,63.6,112.6,68.3z M95.1,75.3
		c-1,1.3-2.1,2.1-3.4,2.6v-1.7c-1.2,1.3-2.7,2-4.3,2c-1.7,0-3.2-0.7-4.5-2.1v1.7c-1.2-0.4-2.3-1.3-3.3-2.5c-1.5-1.9-2.2-4.3-2.2-6.9
		c0-2.7,0.7-4.9,2.2-6.9c1-1.2,2-2.1,3.3-2.5v1.8c1.3-1.4,2.8-2.2,4.5-2.2c1.7,0,3.1,0.7,4.3,2v-1.7c1.3,0.4,2.5,1.3,3.5,2.6
		c1.5,1.9,2.2,4.2,2.2,6.9C97.4,71.1,96.6,73.4,95.1,75.3L95.1,75.3z M100.5,51.2v2.6c-2.3-2.7-5.3-4.3-8.8-4.2v0.2
		c-0.7-0.2-1.5-0.3-2.2-0.3c-2.4,0-4.6,1-6.6,3.2v-2c-1.7,0.9-3.2,2.4-4.7,4.5V29.5h-11v56.5h11v-4.6c1.3,2.2,2.9,3.7,4.7,4.6v-2
		c1.8,2,4,3,6.4,3c0.8,0,1.6-0.1,2.4-0.3V87c3.5,0,6.5-1.4,8.8-4.1v2.5c4.7-2.7,8.1-8.9,8.1-17.2C108.6,60.1,105.2,54,100.5,51.2
		L100.5,51.2z M141.6,1.3H130l-3.1,7.1V4.9l-8.8,19.9v-3.6l-4.2,9.4l0,0l-1.7,4.2l-2.9-20v10.7l-3.6-24.3h-11l5.8,30.8v-8.3l4,21.1
		h11.4l2.2-4.6v3.3l8.8-18.3v3.3l8.8-18.3v3.3L141.6,1.3z"/>
</g>
</svg>
